<?xml version='1.0' encoding='utf-8'?>
<COLLADA xmlns="http://www.collada.org/2005/11/COLLADASchema" version="1.4.0">
  <asset>
    <contributor>
      <author>Port thesis asset generator</author>
    </contributor>
    <created>2026-10-03T21:10:53Z</created>
    <modified>2026-10-03T21:10:53Z</modified>
    <unit name="meter" meter="1" />
    <up_axis>Z_UP</up_axis>
  </asset>
  <library_effects>
    <effect id="effect_conley_legacy">
      <profile_COMMON>
        <technique sid="common">
          <phong>
            <diffuse>
              <color>0.09 0.28 0.55 1</color>
            </diffuse>
            <specular>
              <color>0.10 0.10 0.10 1</color>
            </specular>
            <shininess>
              <float>8</float>
            </shininess>
          </phong>
        </technique>
      </profile_COMMON>
    </effect>
    <effect id="effect_glass">
      <profile_COMMON>
        <technique sid="common">
          <phong>
            <diffuse>
              <color>0.12 0.3 0.38 1</color>
            </diffuse>
            <specular>
              <color>0.10 0.10 0.10 1</color>
            </specular>
            <shininess>
              <float>8</float>
            </shininess>
          </phong>
        </technique>
      </profile_COMMON>
    </effect>
    <effect id="effect_light">
      <profile_COMMON>
        <technique sid="common">
          <phong>
            <diffuse>
              <color>0.91 0.88 0.66 1</color>
            </diffuse>
            <specular>
              <color>0.10 0.10 0.10 1</color>
            </specular>
            <shininess>
              <float>8</float>
            </shininess>
          </phong>
        </technique>
      </profile_COMMON>
    </effect>
    <effect id="effect_steel_dark">
      <profile_COMMON>
        <technique sid="common">
          <phong>
            <diffuse>
              <color>0.29 0.35 0.39 1</color>
            </diffuse>
            <specular>
              <color>0.10 0.10 0.10 1</color>
            </specular>
            <shininess>
              <float>8</float>
            </shininess>
          </phong>
        </technique>
      </profile_COMMON>
    </effect>
  </library_effects>
  <library_materials>
    <material id="material_conley_legacy" name="conley_legacy">
      <instance_effect url="#effect_conley_legacy" />
    </material>
    <material id="material_glass" name="glass">
      <instance_effect url="#effect_glass" />
    </material>
    <material id="material_light" name="light">
      <instance_effect url="#effect_light" />
    </material>
    <material id="material_steel_dark" name="steel_dark">
      <instance_effect url="#effect_steel_dark" />
    </material>
  </library_materials>
  <library_geometries>
    <geometry id="geometry_box" name="unit_box">
      <mesh>
        <source id="box_positions">
          <float_array id="box_positions_array" count="108">-0.5 -0.5 -0.5 -0.5 0.5 -0.5 0.5 0.5 -0.5 -0.5 -0.5 -0.5 0.5 0.5 -0.5 0.5 -0.5 -0.5 -0.5 -0.5 0.5 0.5 -0.5 0.5 0.5 0.5 0.5 -0.5 -0.5 0.5 0.5 0.5 0.5 -0.5 0.5 0.5 -0.5 -0.5 -0.5 -0.5 -0.5 0.5 -0.5 0.5 0.5 -0.5 -0.5 -0.5 -0.5 0.5 0.5 -0.5 0.5 -0.5 0.5 -0.5 -0.5 0.5 0.5 -0.5 0.5 0.5 0.5 0.5 -0.5 -0.5 0.5 0.5 0.5 0.5 -0.5 0.5 -0.5 -0.5 -0.5 0.5 -0.5 -0.5 0.5 -0.5 0.5 -0.5 -0.5 -0.5 0.5 -0.5 0.5 -0.5 -0.5 0.5 -0.5 0.5 -0.5 -0.5 0.5 0.5 0.5 0.5 0.5 -0.5 0.5 -0.5 0.5 0.5 0.5 0.5 0.5 -0.5</float_array>
          <technique_common>
            <accessor source="#box_positions_array" count="36" stride="3">
              <param name="X" type="float" />
              <param name="Y" type="float" />
              <param name="Z" type="float" />
            </accessor>
          </technique_common>
        </source>
        <source id="box_normals">
          <float_array id="box_normals_array" count="108">0 0 -1 0 0 -1 0 0 -1 0 0 -1 0 0 -1 0 0 -1 0 0 1 0 0 1 0 0 1 0 0 1 0 0 1 0 0 1 -1 0 0 -1 0 0 -1 0 0 -1 0 0 -1 0 0 -1 0 0 1 0 0 1 0 0 1 0 0 1 0 0 1 0 0 1 0 0 0 -1 0 0 -1 0 0 -1 0 0 -1 0 0 -1 0 0 -1 0 0 1 0 0 1 0 0 1 0 0 1 0 0 1 0 0 1 0</float_array>
          <technique_common>
            <accessor source="#box_normals_array" count="36" stride="3">
              <param name="X" type="float" />
              <param name="Y" type="float" />
              <param name="Z" type="float" />
            </accessor>
          </technique_common>
        </source>
        <vertices id="box_vertices">
          <input semantic="POSITION" source="#box_positions" />
        </vertices>
        <triangles material="paint" count="12">
          <input semantic="VERTEX" source="#box_vertices" offset="0" />
          <input semantic="NORMAL" source="#box_normals" offset="1" />
          <p>0 0 1 1 2 2 3 3 4 4 5 5 6 6 7 7 8 8 9 9 10 10 11 11 12 12 13 13 14 14 15 15 16 16 17 17 18 18 19 19 20 20 21 21 22 22 23 23 24 24 25 25 26 26 27 27 28 28 29 29 30 30 31 31 32 32 33 33 34 34 35 35</p>
        </triangles>
      </mesh>
    </geometry>
    <geometry id="geometry_cylinder" name="unit_cylinder">
      <mesh>
        <source id="cylinder_positions">
          <float_array id="cylinder_positions_array" count="432">1 0 -0.5 0.8660254 0.5 -0.5 0.8660254 0.5 0.5 1 0 -0.5 0.8660254 0.5 0.5 1 0 0.5 0 0 -0.5 0.8660254 0.5 -0.5 1 0 -0.5 0 0 0.5 1 0 0.5 0.8660254 0.5 0.5 0.8660254 0.5 -0.5 0.5 0.8660254 -0.5 0.5 0.8660254 0.5 0.8660254 0.5 -0.5 0.5 0.8660254 0.5 0.8660254 0.5 0.5 0 0 -0.5 0.5 0.8660254 -0.5 0.8660254 0.5 -0.5 0 0 0.5 0.8660254 0.5 0.5 0.5 0.8660254 0.5 0.5 0.8660254 -0.5 6.123234e-17 1 -0.5 6.123234e-17 1 0.5 0.5 0.8660254 -0.5 6.123234e-17 1 0.5 0.5 0.8660254 0.5 0 0 -0.5 6.123234e-17 1 -0.5 0.5 0.8660254 -0.5 0 0 0.5 0.5 0.8660254 0.5 6.123234e-17 1 0.5 6.123234e-17 1 -0.5 -0.5 0.8660254 -0.5 -0.5 0.8660254 0.5 6.123234e-17 1 -0.5 -0.5 0.8660254 0.5 6.123234e-17 1 0.5 0 0 -0.5 -0.5 0.8660254 -0.5 6.123234e-17 1 -0.5 0 0 0.5 6.123234e-17 1 0.5 -0.5 0.8660254 0.5 -0.5 0.8660254 -0.5 -0.8660254 0.5 -0.5 -0.8660254 0.5 0.5 -0.5 0.8660254 -0.5 -0.8660254 0.5 0.5 -0.5 0.8660254 0.5 0 0 -0.5 -0.8660254 0.5 -0.5 -0.5 0.8660254 -0.5 0 0 0.5 -0.5 0.8660254 0.5 -0.8660254 0.5 0.5 -0.8660254 0.5 -0.5 -1 1.224647e-16 -0.5 -1 1.224647e-16 0.5 -0.8660254 0.5 -0.5 -1 1.224647e-16 0.5 -0.8660254 0.5 0.5 0 0 -0.5 -1 1.224647e-16 -0.5 -0.8660254 0.5 -0.5 0 0 0.5 -0.8660254 0.5 0.5 -1 1.224647e-16 0.5 -1 1.224647e-16 -0.5 -0.8660254 -0.5 -0.5 -0.8660254 -0.5 0.5 -1 1.224647e-16 -0.5 -0.8660254 -0.5 0.5 -1 1.224647e-16 0.5 0 0 -0.5 -0.8660254 -0.5 -0.5 -1 1.224647e-16 -0.5 0 0 0.5 -1 1.224647e-16 0.5 -0.8660254 -0.5 0.5 -0.8660254 -0.5 -0.5 -0.5 -0.8660254 -0.5 -0.5 -0.8660254 0.5 -0.8660254 -0.5 -0.5 -0.5 -0.8660254 0.5 -0.8660254 -0.5 0.5 0 0 -0.5 -0.5 -0.8660254 -0.5 -0.8660254 -0.5 -0.5 0 0 0.5 -0.8660254 -0.5 0.5 -0.5 -0.8660254 0.5 -0.5 -0.8660254 -0.5 -1.83697e-16 -1 -0.5 -1.83697e-16 -1 0.5 -0.5 -0.8660254 -0.5 -1.83697e-16 -1 0.5 -0.5 -0.8660254 0.5 0 0 -0.5 -1.83697e-16 -1 -0.5 -0.5 -0.8660254 -0.5 0 0 0.5 -0.5 -0.8660254 0.5 -1.83697e-16 -1 0.5 -1.83697e-16 -1 -0.5 0.5 -0.8660254 -0.5 0.5 -0.8660254 0.5 -1.83697e-16 -1 -0.5 0.5 -0.8660254 0.5 -1.83697e-16 -1 0.5 0 0 -0.5 0.5 -0.8660254 -0.5 -1.83697e-16 -1 -0.5 0 0 0.5 -1.83697e-16 -1 0.5 0.5 -0.8660254 0.5 0.5 -0.8660254 -0.5 0.8660254 -0.5 -0.5 0.8660254 -0.5 0.5 0.5 -0.8660254 -0.5 0.8660254 -0.5 0.5 0.5 -0.8660254 0.5 0 0 -0.5 0.8660254 -0.5 -0.5 0.5 -0.8660254 -0.5 0 0 0.5 0.5 -0.8660254 0.5 0.8660254 -0.5 0.5 0.8660254 -0.5 -0.5 1 -2.449294e-16 -0.5 1 -2.449294e-16 0.5 0.8660254 -0.5 -0.5 1 -2.449294e-16 0.5 0.8660254 -0.5 0.5 0 0 -0.5 1 -2.449294e-16 -0.5 0.8660254 -0.5 -0.5 0 0 0.5 0.8660254 -0.5 0.5 1 -2.449294e-16 0.5</float_array>
          <technique_common>
            <accessor source="#cylinder_positions_array" count="144" stride="3">
              <param name="X" type="float" />
              <param name="Y" type="float" />
              <param name="Z" type="float" />
            </accessor>
          </technique_common>
        </source>
        <source id="cylinder_normals">
          <float_array id="cylinder_normals_array" count="432">0.9659258 0.258819 0 0.9659258 0.258819 0 0.9659258 0.258819 0 0.9659258 0.258819 0 0.9659258 0.258819 0 0.9659258 0.258819 0 0 0 -1 0 0 -1 0 0 -1 0 0 1 0 0 1 0 0 1 0.7071068 0.7071068 0 0.7071068 0.7071068 0 0.7071068 0.7071068 0 0.7071068 0.7071068 0 0.7071068 0.7071068 0 0.7071068 0.7071068 0 0 0 -1 0 0 -1 0 0 -1 0 0 1 0 0 1 0 0 1 0.258819 0.9659258 0 0.258819 0.9659258 0 0.258819 0.9659258 0 0.258819 0.9659258 0 0.258819 0.9659258 0 0.258819 0.9659258 0 0 0 -1 0 0 -1 0 0 -1 0 0 1 0 0 1 0 0 1 -0.258819 0.9659258 0 -0.258819 0.9659258 0 -0.258819 0.9659258 0 -0.258819 0.9659258 0 -0.258819 0.9659258 0 -0.258819 0.9659258 0 0 0 -1 0 0 -1 0 0 -1 0 0 1 0 0 1 0 0 1 -0.7071068 0.7071068 0 -0.7071068 0.7071068 0 -0.7071068 0.7071068 0 -0.7071068 0.7071068 0 -0.7071068 0.7071068 0 -0.7071068 0.7071068 0 0 0 -1 0 0 -1 0 0 -1 0 0 1 0 0 1 0 0 1 -0.9659258 0.258819 0 -0.9659258 0.258819 0 -0.9659258 0.258819 0 -0.9659258 0.258819 0 -0.9659258 0.258819 0 -0.9659258 0.258819 0 0 0 -1 0 0 -1 0 0 -1 0 0 1 0 0 1 0 0 1 -0.9659258 -0.258819 0 -0.9659258 -0.258819 0 -0.9659258 -0.258819 0 -0.9659258 -0.258819 0 -0.9659258 -0.258819 0 -0.9659258 -0.258819 0 0 0 -1 0 0 -1 0 0 -1 0 0 1 0 0 1 0 0 1 -0.7071068 -0.7071068 0 -0.7071068 -0.7071068 0 -0.7071068 -0.7071068 0 -0.7071068 -0.7071068 0 -0.7071068 -0.7071068 0 -0.7071068 -0.7071068 0 0 0 -1 0 0 -1 0 0 -1 0 0 1 0 0 1 0 0 1 -0.258819 -0.9659258 0 -0.258819 -0.9659258 0 -0.258819 -0.9659258 0 -0.258819 -0.9659258 0 -0.258819 -0.9659258 0 -0.258819 -0.9659258 0 0 0 -1 0 0 -1 0 0 -1 0 0 1 0 0 1 0 0 1 0.258819 -0.9659258 0 0.258819 -0.9659258 0 0.258819 -0.9659258 0 0.258819 -0.9659258 0 0.258819 -0.9659258 0 0.258819 -0.9659258 0 0 0 -1 0 0 -1 0 0 -1 0 0 1 0 0 1 0 0 1 0.7071068 -0.7071068 0 0.7071068 -0.7071068 0 0.7071068 -0.7071068 0 0.7071068 -0.7071068 0 0.7071068 -0.7071068 0 0.7071068 -0.7071068 0 0 0 -1 0 0 -1 0 0 -1 0 0 1 0 0 1 0 0 1 0.9659258 -0.258819 0 0.9659258 -0.258819 0 0.9659258 -0.258819 0 0.9659258 -0.258819 0 0.9659258 -0.258819 0 0.9659258 -0.258819 0 0 0 -1 0 0 -1 0 0 -1 0 0 1 0 0 1 0 0 1</float_array>
          <technique_common>
            <accessor source="#cylinder_normals_array" count="144" stride="3">
              <param name="X" type="float" />
              <param name="Y" type="float" />
              <param name="Z" type="float" />
            </accessor>
          </technique_common>
        </source>
        <vertices id="cylinder_vertices">
          <input semantic="POSITION" source="#cylinder_positions" />
        </vertices>
        <triangles material="paint" count="48">
          <input semantic="VERTEX" source="#cylinder_vertices" offset="0" />
          <input semantic="NORMAL" source="#cylinder_normals" offset="1" />
          <p>0 0 1 1 2 2 3 3 4 4 5 5 6 6 7 7 8 8 9 9 10 10 11 11 12 12 13 13 14 14 15 15 16 16 17 17 18 18 19 19 20 20 21 21 22 22 23 23 24 24 25 25 26 26 27 27 28 28 29 29 30 30 31 31 32 32 33 33 34 34 35 35 36 36 37 37 38 38 39 39 40 40 41 41 42 42 43 43 44 44 45 45 46 46 47 47 48 48 49 49 50 50 51 51 52 52 53 53 54 54 55 55 56 56 57 57 58 58 59 59 60 60 61 61 62 62 63 63 64 64 65 65 66 66 67 67 68 68 69 69 70 70 71 71 72 72 73 73 74 74 75 75 76 76 77 77 78 78 79 79 80 80 81 81 82 82 83 83 84 84 85 85 86 86 87 87 88 88 89 89 90 90 91 91 92 92 93 93 94 94 95 95 96 96 97 97 98 98 99 99 100 100 101 101 102 102 103 103 104 104 105 105 106 106 107 107 108 108 109 109 110 110 111 111 112 112 113 113 114 114 115 115 116 116 117 117 118 118 119 119 120 120 121 121 122 122 123 123 124 124 125 125 126 126 127 127 128 128 129 129 130 130 131 131 132 132 133 133 134 134 135 135 136 136 137 137 138 138 139 139 140 140 141 141 142 142 143 143</p>
        </triangles>
      </mesh>
    </geometry>
  </library_geometries>
  <library_visual_scenes>
    <visual_scene id="scene_sts_conley_legacy_body" name="sts_conley_legacy_body">
      <node id="assembly_sts_conley_legacy_body" name="sts_conley_legacy_body" type="NODE">
        <node id="part_0000" name="portal_leg_left_land" type="NODE">
          <matrix>0 0 29.08 0 0.65 0 0 0 0 0.65 0 0 -6.1 -7.5 15.24 1</matrix>
          <instance_geometry url="#geometry_box">
            <bind_material>
              <technique_common>
                <instance_material symbol="paint" target="#material_conley_legacy" />
              </technique_common>
            </bind_material>
          </instance_geometry>
        </node>
        <node id="part_0001" name="bogie_left_land" type="NODE">
          <matrix>2 0 0 0 0 1.4 0 0 0 0 0.7 0 -6.1 -7.5 0.55 1</matrix>
          <instance_geometry url="#geometry_box">
            <bind_material>
              <technique_common>
                <instance_material symbol="paint" target="#material_steel_dark" />
              </technique_common>
            </bind_material>
          </instance_geometry>
        </node>
        <node id="part_0002" name="rail_wheel_left_land_aft" type="NODE">
          <matrix>0.27 0 0 0 0 0 -0.27 0 0 0.24 0 0 -6.78 -7.5 0.27 1</matrix>
          <instance_geometry url="#geometry_cylinder">
            <bind_material>
              <technique_common>
                <instance_material symbol="paint" target="#material_steel_dark" />
              </technique_common>
            </bind_material>
          </instance_geometry>
        </node>
        <node id="part_0003" name="rail_wheel_left_land_fore" type="NODE">
          <matrix>0.27 0 0 0 0 0 -0.27 0 0 0.24 0 0 -5.42 -7.5 0.27 1</matrix>
          <instance_geometry url="#geometry_cylinder">
            <bind_material>
              <technique_common>
                <instance_material symbol="paint" target="#material_steel_dark" />
              </technique_common>
            </bind_material>
          </instance_geometry>
        </node>
        <node id="part_0004" name="portal_leg_left_sea" type="NODE">
          <matrix>0 0 29.08 0 0.65 0 0 0 0 0.65 0 0 -6.1 7.5 15.24 1</matrix>
          <instance_geometry url="#geometry_box">
            <bind_material>
              <technique_common>
                <instance_material symbol="paint" target="#material_conley_legacy" />
              </technique_common>
            </bind_material>
          </instance_geometry>
        </node>
        <node id="part_0005" name="bogie_left_sea" type="NODE">
          <matrix>2 0 0 0 0 1.4 0 0 0 0 0.7 0 -6.1 7.5 0.55 1</matrix>
          <instance_geometry url="#geometry_box">
            <bind_material>
              <technique_common>
                <instance_material symbol="paint" target="#material_steel_dark" />
              </technique_common>
            </bind_material>
          </instance_geometry>
        </node>
        <node id="part_0006" name="rail_wheel_left_sea_aft" type="NODE">
          <matrix>0.27 0 0 0 0 0 -0.27 0 0 0.24 0 0 -6.78 7.5 0.27 1</matrix>
          <instance_geometry url="#geometry_cylinder">
            <bind_material>
              <technique_common>
                <instance_material symbol="paint" target="#material_steel_dark" />
              </technique_common>
            </bind_material>
          </instance_geometry>
        </node>
        <node id="part_0007" name="rail_wheel_left_sea_fore" type="NODE">
          <matrix>0.27 0 0 0 0 0 -0.27 0 0 0.24 0 0 -5.42 7.5 0.27 1</matrix>
          <instance_geometry url="#geometry_cylinder">
            <bind_material>
              <technique_common>
                <instance_material symbol="paint" target="#material_steel_dark" />
              </technique_common>
            </bind_material>
          </instance_geometry>
        </node>
        <node id="part_0008" name="top_girder_left" type="NODE">
          <matrix>0 15 0 0 -0.85 0 0 0 0 -0 0.7 0 -6.1 0 31.98 1</matrix>
          <instance_geometry url="#geometry_box">
            <bind_material>
              <technique_common>
                <instance_material symbol="paint" target="#material_conley_legacy" />
              </technique_common>
            </bind_material>
          </instance_geometry>
        </node>
        <node id="part_0009" name="portal_brace_left" type="NODE">
          <matrix>0 15 28.88 0 -0.3 0 0 0 0 -0.2662314 0.1382781 0 -6.1 0 15.34 1</matrix>
          <instance_geometry url="#geometry_box">
            <bind_material>
              <technique_common>
                <instance_material symbol="paint" target="#material_conley_legacy" />
              </technique_common>
            </bind_material>
          </instance_geometry>
        </node>
        <node id="part_0010" name="portal_leg_right_land" type="NODE">
          <matrix>0 0 29.08 0 0.65 0 0 0 0 0.65 0 0 6.1 -7.5 15.24 1</matrix>
          <instance_geometry url="#geometry_box">
            <bind_material>
              <technique_common>
                <instance_material symbol="paint" target="#material_conley_legacy" />
              </technique_common>
            </bind_material>
          </instance_geometry>
        </node>
        <node id="part_0011" name="bogie_right_land" type="NODE">
          <matrix>2 0 0 0 0 1.4 0 0 0 0 0.7 0 6.1 -7.5 0.55 1</matrix>
          <instance_geometry url="#geometry_box">
            <bind_material>
              <technique_common>
                <instance_material symbol="paint" target="#material_steel_dark" />
              </technique_common>
            </bind_material>
          </instance_geometry>
        </node>
        <node id="part_0012" name="rail_wheel_right_land_aft" type="NODE">
          <matrix>0.27 0 0 0 0 0 -0.27 0 0 0.24 0 0 5.42 -7.5 0.27 1</matrix>
          <instance_geometry url="#geometry_cylinder">
            <bind_material>
              <technique_common>
                <instance_material symbol="paint" target="#material_steel_dark" />
              </technique_common>
            </bind_material>
          </instance_geometry>
        </node>
        <node id="part_0013" name="rail_wheel_right_land_fore" type="NODE">
          <matrix>0.27 0 0 0 0 0 -0.27 0 0 0.24 0 0 6.78 -7.5 0.27 1</matrix>
          <instance_geometry url="#geometry_cylinder">
            <bind_material>
              <technique_common>
                <instance_material symbol="paint" target="#material_steel_dark" />
              </technique_common>
            </bind_material>
          </instance_geometry>
        </node>
        <node id="part_0014" name="portal_leg_right_sea" type="NODE">
          <matrix>0 0 29.08 0 0.65 0 0 0 0 0.65 0 0 6.1 7.5 15.24 1</matrix>
          <instance_geometry url="#geometry_box">
            <bind_material>
              <technique_common>
                <instance_material symbol="paint" target="#material_conley_legacy" />
              </technique_common>
            </bind_material>
          </instance_geometry>
        </node>
        <node id="part_0015" name="bogie_right_sea" type="NODE">
          <matrix>2 0 0 0 0 1.4 0 0 0 0 0.7 0 6.1 7.5 0.55 1</matrix>
          <instance_geometry url="#geometry_box">
            <bind_material>
              <technique_common>
                <instance_material symbol="paint" target="#material_steel_dark" />
              </technique_common>
            </bind_material>
          </instance_geometry>
        </node>
        <node id="part_0016" name="rail_wheel_right_sea_aft" type="NODE">
          <matrix>0.27 0 0 0 0 0 -0.27 0 0 0.24 0 0 5.42 7.5 0.27 1</matrix>
          <instance_geometry url="#geometry_cylinder">
            <bind_material>
              <technique_common>
                <instance_material symbol="paint" target="#material_steel_dark" />
              </technique_common>
            </bind_material>
          </instance_geometry>
        </node>
        <node id="part_0017" name="rail_wheel_right_sea_fore" type="NODE">
          <matrix>0.27 0 0 0 0 0 -0.27 0 0 0.24 0 0 6.78 7.5 0.27 1</matrix>
          <instance_geometry url="#geometry_cylinder">
            <bind_material>
              <technique_common>
                <instance_material symbol="paint" target="#material_steel_dark" />
              </technique_common>
            </bind_material>
          </instance_geometry>
        </node>
        <node id="part_0018" name="top_girder_right" type="NODE">
          <matrix>0 15 0 0 -0.85 0 0 0 0 -0 0.7 0 6.1 0 31.98 1</matrix>
          <instance_geometry url="#geometry_box">
            <bind_material>
              <technique_common>
                <instance_material symbol="paint" target="#material_conley_legacy" />
              </technique_common>
            </bind_material>
          </instance_geometry>
        </node>
        <node id="part_0019" name="portal_brace_right" type="NODE">
          <matrix>0 15 28.88 0 -0.3 0 0 0 0 -0.2662314 0.1382781 0 6.1 0 15.34 1</matrix>
          <instance_geometry url="#geometry_box">
            <bind_material>
              <technique_common>
                <instance_material symbol="paint" target="#material_conley_legacy" />
              </technique_common>
            </bind_material>
          </instance_geometry>
        </node>
        <node id="part_0020" name="machine_house" type="NODE">
          <matrix>7.2 0 0 0 0 4.1 0 0 0 0 2 0 0 -9.9 33.18 1</matrix>
          <instance_geometry url="#geometry_box">
            <bind_material>
              <technique_common>
                <instance_material symbol="paint" target="#material_steel_dark" />
              </technique_common>
            </bind_material>
          </instance_geometry>
        </node>
        <node id="part_0021" name="operator_cabin" type="NODE">
          <matrix>2.7 0 0 0 0 2.3 0 0 0 0 2.3 0 5.1 5.5 29.48 1</matrix>
          <instance_geometry url="#geometry_box">
            <bind_material>
              <technique_common>
                <instance_material symbol="paint" target="#material_glass" />
              </technique_common>
            </bind_material>
          </instance_geometry>
        </node>
        <node id="part_0022" name="boom_lower_left" type="NODE">
          <matrix>0 65.12 0 0 -0.55 0 0 0 0 -0 0.55 0 -2 11.44 31.98 1</matrix>
          <instance_geometry url="#geometry_box">
            <bind_material>
              <technique_common>
                <instance_material symbol="paint" target="#material_conley_legacy" />
              </technique_common>
            </bind_material>
          </instance_geometry>
        </node>
        <node id="part_0023" name="boom_upper_left" type="NODE">
          <matrix>0 48.58 0 0 -0.4 0 0 0 0 -0 0.4 0 -2 11.79 36.58 1</matrix>
          <instance_geometry url="#geometry_box">
            <bind_material>
              <technique_common>
                <instance_material symbol="paint" target="#material_conley_legacy" />
              </technique_common>
            </bind_material>
          </instance_geometry>
        </node>
        <node id="part_0024" name="diagonal_left_0" type="NODE">
          <matrix>0 7.235556 3.95 0 -0.2 0 0 0 0 -0.09583275 0.1755451 0 -2 -17.50222 34.305 1</matrix>
          <instance_geometry url="#geometry_box">
            <bind_material>
              <technique_common>
                <instance_material symbol="paint" target="#material_conley_legacy" />
              </technique_common>
            </bind_material>
          </instance_geometry>
        </node>
        <node id="part_0025" name="diagonal_left_1" type="NODE">
          <matrix>0 7.235556 3.95 0 -0.2 0 0 0 0 -0.09583275 0.1755451 0 -2 -10.26667 34.305 1</matrix>
          <instance_geometry url="#geometry_box">
            <bind_material>
              <technique_common>
                <instance_material symbol="paint" target="#material_conley_legacy" />
              </technique_common>
            </bind_material>
          </instance_geometry>
        </node>
        <node id="part_0026" name="diagonal_left_2" type="NODE">
          <matrix>0 7.235556 3.95 0 -0.2 0 0 0 0 -0.09583275 0.1755451 0 -2 -3.031111 34.305 1</matrix>
          <instance_geometry url="#geometry_box">
            <bind_material>
              <technique_common>
                <instance_material symbol="paint" target="#material_conley_legacy" />
              </technique_common>
            </bind_material>
          </instance_geometry>
        </node>
        <node id="part_0027" name="diagonal_left_3" type="NODE">
          <matrix>0 7.235556 3.95 0 -0.2 0 0 0 0 -0.09583275 0.1755451 0 -2 4.204444 34.305 1</matrix>
          <instance_geometry url="#geometry_box">
            <bind_material>
              <technique_common>
                <instance_material symbol="paint" target="#material_conley_legacy" />
              </technique_common>
            </bind_material>
          </instance_geometry>
        </node>
        <node id="part_0028" name="diagonal_left_4" type="NODE">
          <matrix>0 7.235556 3.95 0 -0.2 0 0 0 0 -0.09583275 0.1755451 0 -2 11.44 34.305 1</matrix>
          <instance_geometry url="#geometry_box">
            <bind_material>
              <technique_common>
                <instance_material symbol="paint" target="#material_conley_legacy" />
              </technique_common>
            </bind_material>
          </instance_geometry>
        </node>
        <node id="part_0029" name="diagonal_left_5" type="NODE">
          <matrix>0 7.235556 3.95 0 -0.2 0 0 0 0 -0.09583275 0.1755451 0 -2 18.67556 34.305 1</matrix>
          <instance_geometry url="#geometry_box">
            <bind_material>
              <technique_common>
                <instance_material symbol="paint" target="#material_conley_legacy" />
              </technique_common>
            </bind_material>
          </instance_geometry>
        </node>
        <node id="part_0030" name="diagonal_left_6" type="NODE">
          <matrix>0 7.235556 3.95 0 -0.2 0 0 0 0 -0.09583275 0.1755451 0 -2 25.91111 34.305 1</matrix>
          <instance_geometry url="#geometry_box">
            <bind_material>
              <technique_common>
                <instance_material symbol="paint" target="#material_conley_legacy" />
              </technique_common>
            </bind_material>
          </instance_geometry>
        </node>
        <node id="part_0031" name="diagonal_left_7" type="NODE">
          <matrix>0 6.551111 3.95 0 -0.2 0 0 0 0 -0.1032706 0.1712752 0 -2 32.80444 34.305 1</matrix>
          <instance_geometry url="#geometry_box">
            <bind_material>
              <technique_common>
                <instance_material symbol="paint" target="#material_conley_legacy" />
              </technique_common>
            </bind_material>
          </instance_geometry>
        </node>
        <node id="part_0032" name="diagonal_left_8" type="NODE">
          <matrix>0 -0.6844444 3.95 0 0.2 0 -0 0 0 0.1970635 0.03414658 0 -2 36.42222 34.305 1</matrix>
          <instance_geometry url="#geometry_box">
            <bind_material>
              <technique_common>
                <instance_material symbol="paint" target="#material_conley_legacy" />
              </technique_common>
            </bind_material>
          </instance_geometry>
        </node>
        <node id="part_0033" name="boom_lower_right" type="NODE">
          <matrix>0 65.12 0 0 -0.55 0 0 0 0 -0 0.55 0 2 11.44 31.98 1</matrix>
          <instance_geometry url="#geometry_box">
            <bind_material>
              <technique_common>
                <instance_material symbol="paint" target="#material_conley_legacy" />
              </technique_common>
            </bind_material>
          </instance_geometry>
        </node>
        <node id="part_0034" name="boom_upper_right" type="NODE">
          <matrix>0 48.58 0 0 -0.4 0 0 0 0 -0 0.4 0 2 11.79 36.58 1</matrix>
          <instance_geometry url="#geometry_box">
            <bind_material>
              <technique_common>
                <instance_material symbol="paint" target="#material_conley_legacy" />
              </technique_common>
            </bind_material>
          </instance_geometry>
        </node>
        <node id="part_0035" name="diagonal_right_0" type="NODE">
          <matrix>0 7.235556 3.95 0 -0.2 0 0 0 0 -0.09583275 0.1755451 0 2 -17.50222 34.305 1</matrix>
          <instance_geometry url="#geometry_box">
            <bind_material>
              <technique_common>
                <instance_material symbol="paint" target="#material_conley_legacy" />
              </technique_common>
            </bind_material>
          </instance_geometry>
        </node>
        <node id="part_0036" name="diagonal_right_1" type="NODE">
          <matrix>0 7.235556 3.95 0 -0.2 0 0 0 0 -0.09583275 0.1755451 0 2 -10.26667 34.305 1</matrix>
          <instance_geometry url="#geometry_box">
            <bind_material>
              <technique_common>
                <instance_material symbol="paint" target="#material_conley_legacy" />
              </technique_common>
            </bind_material>
          </instance_geometry>
        </node>
        <node id="part_0037" name="diagonal_right_2" type="NODE">
          <matrix>0 7.235556 3.95 0 -0.2 0 0 0 0 -0.09583275 0.1755451 0 2 -3.031111 34.305 1</matrix>
          <instance_geometry url="#geometry_box">
            <bind_material>
              <technique_common>
                <instance_material symbol="paint" target="#material_conley_legacy" />
              </technique_common>
            </bind_material>
          </instance_geometry>
        </node>
        <node id="part_0038" name="diagonal_right_3" type="NODE">
          <matrix>0 7.235556 3.95 0 -0.2 0 0 0 0 -0.09583275 0.1755451 0 2 4.204444 34.305 1</matrix>
          <instance_geometry url="#geometry_box">
            <bind_material>
              <technique_common>
                <instance_material symbol="paint" target="#material_conley_legacy" />
              </technique_common>
            </bind_material>
          </instance_geometry>
        </node>
        <node id="part_0039" name="diagonal_right_4" type="NODE">
          <matrix>0 7.235556 3.95 0 -0.2 0 0 0 0 -0.09583275 0.1755451 0 2 11.44 34.305 1</matrix>
          <instance_geometry url="#geometry_box">
            <bind_material>
              <technique_common>
                <instance_material symbol="paint" target="#material_conley_legacy" />
              </technique_common>
            </bind_material>
          </instance_geometry>
        </node>
        <node id="part_0040" name="diagonal_right_5" type="NODE">
          <matrix>0 7.235556 3.95 0 -0.2 0 0 0 0 -0.09583275 0.1755451 0 2 18.67556 34.305 1</matrix>
          <instance_geometry url="#geometry_box">
            <bind_material>
              <technique_common>
                <instance_material symbol="paint" target="#material_conley_legacy" />
              </technique_common>
            </bind_material>
          </instance_geometry>
        </node>
        <node id="part_0041" name="diagonal_right_6" type="NODE">
          <matrix>0 7.235556 3.95 0 -0.2 0 0 0 0 -0.09583275 0.1755451 0 2 25.91111 34.305 1</matrix>
          <instance_geometry url="#geometry_box">
            <bind_material>
              <technique_common>
                <instance_material symbol="paint" target="#material_conley_legacy" />
              </technique_common>
            </bind_material>
          </instance_geometry>
        </node>
        <node id="part_0042" name="diagonal_right_7" type="NODE">
          <matrix>0 6.551111 3.95 0 -0.2 0 0 0 0 -0.1032706 0.1712752 0 2 32.80444 34.305 1</matrix>
          <instance_geometry url="#geometry_box">
            <bind_material>
              <technique_common>
                <instance_material symbol="paint" target="#material_conley_legacy" />
              </technique_common>
            </bind_material>
          </instance_geometry>
        </node>
        <node id="part_0043" name="diagonal_right_8" type="NODE">
          <matrix>0 -0.6844444 3.95 0 0.2 0 -0 0 0 0.1970635 0.03414658 0 2 36.42222 34.305 1</matrix>
          <instance_geometry url="#geometry_box">
            <bind_material>
              <technique_common>
                <instance_material symbol="paint" target="#material_conley_legacy" />
              </technique_common>
            </bind_material>
          </instance_geometry>
        </node>
        <node id="part_0044" name="boom_cross_land" type="NODE">
          <matrix>4 0 0 0 0 0.45 0 0 0 0 0.45 0 0 -21.12 36.58 1</matrix>
          <instance_geometry url="#geometry_box">
            <bind_material>
              <technique_common>
                <instance_material symbol="paint" target="#material_conley_legacy" />
              </technique_common>
            </bind_material>
          </instance_geometry>
        </node>
        <node id="part_0045" name="boom_cross_sea" type="NODE">
          <matrix>4 0 0 0 0 0.45 0 0 0 0 0.45 0 0 36.08 36.58 1</matrix>
          <instance_geometry url="#geometry_box">
            <bind_material>
              <technique_common>
                <instance_material symbol="paint" target="#material_conley_legacy" />
              </technique_common>
            </bind_material>
          </instance_geometry>
        </node>
        <node id="part_0046" name="crane_identity_panel" type="NODE">
          <matrix>4 0 0 0 0 0.12 0 0 0 0 1.4 0 0 -7.5 21.7464 1</matrix>
          <instance_geometry url="#geometry_box">
            <bind_material>
              <technique_common>
                <instance_material symbol="paint" target="#material_light" />
              </technique_common>
            </bind_material>
          </instance_geometry>
        </node>
      </node>
    </visual_scene>
  </library_visual_scenes>
  <scene>
    <instance_visual_scene url="#scene_sts_conley_legacy_body" />
  </scene>
</COLLADA>